<svg version="1.2" xmlns="http://www.w3.org/2000/svg" viewBox="0 0 855 613" width="1000" height="717">
	<style>
		.s0 { fill: #ffffff } 
		.s1 { fill: #1a1a1a } 
		.s2 { fill: #ff0000 } 
	</style>
	<g id="_Artboards_">
	</g>
	<path id="Shape 7" fill-rule="evenodd" class="s0" d="m57 44h674c4.42 0 8 3.58 8 8v428c0 4.42-3.58 8-8 8h-674c-4.42 0-8-3.58-8-8v-428c0-4.42 3.58-8 8-8z"/>
	<g id="Master Layer 7">
	</g>
	<g id="Layer 1">
		<g id="&lt;Group&gt;">
			<path id="&lt;Compound Path&gt;" fill-rule="evenodd" class="s1" d="m90.11 26.8h614.82c16.28 0 31.76 6.47 43.26 17.97 11.5 11.5 17.97 26.98 17.97 43.26v362.9c0 16.28-6.47 31.76-17.97 43.26-11.5 11.5-26.98 17.97-43.26 17.97h-614.82c-16.28 0-31.76-6.47-43.26-17.97-11.5-11.5-17.97-26.98-17.97-43.26v-362.9c0-16.28 6.47-31.76 17.97-43.26 11.5-11.5 26.98-17.97 43.26-17.97zm614.82 34.02h-614.82c-7.23 0-14.09 2.9-19.2 8.01-5.11 5.11-8 11.96-8 19.2v362.9c0 7.24 2.89 14.09 8 19.2 5.11 5.11 11.96 8.01 19.2 8.01h614.82c7.24 0 14.09-2.9 19.2-8.01 5.11-5.11 8-11.96 8-19.2v-362.9c0-7.24-2.89-14.09-8-19.2-5.11-5.11-11.96-8.01-19.2-8.01z"/>
			<path id="&lt;Path&gt;" class="s1" d="m760.49 133.35v78.21 11.34h-11.34-703.26-11.34v-11.34-78.21-11.34h11.34 703.26 11.34z"/>
			<path id="&lt;Path&gt;" class="s1" d="m155.89 292.15c8.24 0 16.15 1.48 23.51 4.19q0.97 0.36 1.92 0.75-4.19 3.2-7.97 6.98c-14.93 14.93-23.26 35.02-23.26 56.14 0 21.12 8.33 41.21 23.26 56.14q3.78 3.78 7.97 6.98-0.95 0.39-1.92 0.75c-7.36 2.71-15.27 4.19-23.51 4.19-18.79 0-35.8-7.62-48.12-19.94-12.32-12.31-19.93-29.33-19.93-48.12 0-18.79 7.61-35.81 19.93-48.12 12.32-12.32 29.33-19.94 48.12-19.94z"/>
			<path id="&lt;Path&gt;" class="s1" d="m181.37 312.09c12.31-12.32 29.33-19.94 48.12-19.94 18.79 0 35.81 7.62 48.12 19.94 12.32 12.31 19.94 29.33 19.94 48.12 0 18.79-7.62 35.81-19.94 48.12-12.31 12.32-29.33 19.94-48.12 19.94-18.79 0-35.81-7.62-48.12-19.94-12.32-12.31-19.94-29.33-19.94-48.12 0-18.79 7.62-35.81 19.94-48.12z"/>
			<path id="&lt;Compound Path&gt;" class="s1" d="m359.98 343.2h72.66c8.85 0 16.02 7.62 16.02 17.01 0 9.4-7.17 17.01-16.02 17.01h-72.66c-8.85 0-16.03-7.61-16.03-17.01 0-9.39 7.18-17.01 16.03-17.01zm126.57 0h72.67c8.84 0 16.02 7.62 16.02 17.01 0 9.4-7.18 17.01-16.02 17.01h-72.67c-8.85 0-16.02-7.61-16.02-17.01 0-9.39 7.17-17.01 16.02-17.01zm126.57 0h72.67c8.85 0 16.02 7.62 16.02 17.01 0 9.4-7.17 17.01-16.02 17.01h-72.67c-8.84 0-16.02-7.61-16.02-17.01 0-9.39 7.18-17.01 16.02-17.01z"/>
		</g>
		<path id="Shape 1" fill-rule="evenodd" class="s0" d="m680 573c-82.4 0-149-65.71-149-147 0-81.29 66.6-147 149-147 82.4 0 149 65.71 149 147 0 81.29-66.6 147-149 147z"/>
		<path id="Shape 3" fill-rule="evenodd" class="s2" d="m680 590c-90.69 0-164-73.31-164-164 0-90.69 73.31-164 164-164 90.69 0 164 73.31 164 164 0 90.69-73.31 164-164 164z"/>
		<path id="Shape 6" fill-rule="evenodd" class="s0" d="m600.64 484.35l137.9-137.88c5.86-5.85 15.35-5.85 21.21 0.01l2.37 2.36c5.85 5.86 5.85 15.36-0.01 21.21l-137.89 137.88c-5.86 5.85-15.36 5.85-21.22-0.01l-2.36-2.36c-5.86-5.86-5.86-15.36 0-21.21z"/>
		<path id="Shape 6 copy" fill-rule="evenodd" class="s0" d="m624.23 346.46l137.87 137.9c5.86 5.86 5.86 15.36 0 21.21l-2.37 2.37c-5.85 5.86-15.35 5.86-21.21 0l-137.87-137.9c-5.86-5.86-5.86-15.36 0-21.21l2.37-2.37c5.86-5.86 15.35-5.85 21.21 0z"/>
		<path id="Shape 5" class="s0" d=""/>
	</g>
</svg>