<svg version="1.2" xmlns="http://www.w3.org/2000/svg" viewBox="0 0 544 543" width="1000" height="998">
	<title>312067-P8MJCK-674</title>
	<style>
		.s0 { fill: #7a7a7a } 
	</style>
	<g id="BACKGROUND">
	</g>
	<g id="OBJECTS">
		<g id="&lt;Group&gt;">
			<g id="&lt;Group&gt;">
				<g id="&lt;Group&gt;">
				</g>
			</g>
			<g id="&lt;Group&gt;">
			</g>
			<g id="&lt;Group&gt;">
			</g>
			<g id="&lt;Group&gt;">
				<g id="&lt;Group&gt;">
				</g>
				<g id="&lt;Group&gt;">
				</g>
			</g>
			<g id="&lt;Group&gt;">
			</g>
			<g id="&lt;Group&gt;">
			</g>
			<g id="&lt;Group&gt;">
				<g id="&lt;Group&gt;">
					<path id="&lt;Compound Path&gt;" fill-rule="evenodd" class="s0" d="m409.5 382.5h-275c-7.5 0-13.6-6.1-13.6-13.6v-192.7c0-7.5 6.1-13.6 13.6-13.6h275c7.5 0 13.6 6.1 13.6 13.6v192.7c0 7.5-6.1 13.6-13.6 13.6zm-275-211.2c-2.7 0-4.9 2.2-4.9 4.9v192.7c0 2.7 2.2 5 4.9 5h275c2.7 0 4.9-2.3 4.9-5v-192.7c0-2.7-2.2-4.9-4.9-4.9z"/>
				</g>
				<g id="&lt;Group&gt;">
					<path id="&lt;Compound Path&gt;" fill-rule="evenodd" class="s0" d="m260.8 262.9c-18.1 0-32.7-14.7-32.7-32.7 0-18.1 14.6-32.8 32.7-32.8 18.1 0 32.8 14.7 32.8 32.8 0 18-14.7 32.7-32.8 32.7zm0-56.8c-13.3 0-24.1 10.8-24.1 24.1 0 13.3 10.8 24.1 24.1 24.1 13.3 0 24.1-10.8 24.1-24.1 0-13.3-10.8-24.1-24.1-24.1z"/>
				</g>
				<g id="&lt;Group&gt;">
					<path id="&lt;Path&gt;" class="s0" d="m332.9 382c-1.1 0-2.2-0.5-3.1-1.3l-84.7-84.8c-11.3-11.2-29.5-11.2-40.8 0l-76 76.1c-1.7 1.6-4.4 1.6-6.1 0-1.7-1.7-1.7-4.5 0-6.2l76-76c14.6-14.6 38.4-14.6 53 0l84.8 84.8c1.7 1.7 1.7 4.4 0 6.1-0.9 0.8-2 1.3-3.1 1.3z"/>
				</g>
				<g id="&lt;Group&gt;">
					<path id="&lt;Path&gt;" class="s0" d="m279.8 328.9c-1.1 0-2.2-0.4-3-1.3-1.7-1.7-1.7-4.4 0-6.1l62.8-62.8c14.6-14.6 38.3-14.6 53 0l26.5 26.6c1.7 1.7 1.7 4.4 0 6.1-1.6 1.7-4.4 1.7-6.1 0l-26.6-26.6c-11.2-11.2-29.5-11.2-40.7 0l-62.8 62.8c-0.8 0.9-2 1.3-3.1 1.3z"/>
				</g>
			</g>
			<g id="&lt;Group&gt;">
			</g>
			<g id="&lt;Group&gt;">
				<g id="&lt;Group&gt;">
				</g>
				<g id="&lt;Group&gt;">
				</g>
				<g id="&lt;Group&gt;">
				</g>
				<g id="&lt;Group&gt;">
				</g>
			</g>
			<g id="&lt;Group&gt;">
				<g id="&lt;Group&gt;">
					<g id="&lt;Group&gt;">
					</g>
					<g id="&lt;Group&gt;">
					</g>
					<g id="&lt;Group&gt;">
					</g>
				</g>
			</g>
		</g>
	</g>
	<g id="DESIGNED BY FREEPIK">
		<g id="&lt;Group&gt;">
			<g id="&lt;Group&gt;">
				<g id="&lt;Group&gt;">
				</g>
				<g id="&lt;Group&gt;">
				</g>
				<g id="&lt;Group&gt;">
				</g>
			</g>
		</g>
	</g>
</svg>